<svg xmlns="http://www.w3.org/2000/svg" viewBox="0 0 512 512">
  <defs>
    <linearGradient id="grad" x1="0%" y1="0%" x2="100%" y2="100%">
      <stop offset="0%" style="stop-color:#00ff88"/>
      <stop offset="100%" style="stop-color:#00d4ff"/>
    </linearGradient>
  </defs>
  <rect width="512" height="512" rx="100" fill="#0a0a0f"/>
  <g fill="url(#grad)">
    <!-- Running figure -->
    <circle cx="280" cy="120" r="40"/>
    <path d="M200 180 L280 200 L340 160 L360 180 L280 240 L240 220 L200 280 L160 260 L200 180Z"/>
    <path d="M240 240 L200 340 L160 340 L180 400 L220 400 L280 300 L240 240Z"/>
    <path d="M280 280 L340 380 L380 380 L360 420 L300 420 L260 340 L280 280Z"/>
    <!-- Speed lines -->
    <rect x="80" y="180" width="60" height="8" rx="4" opacity="0.6"/>
    <rect x="100" y="220" width="40" height="8" rx="4" opacity="0.4"/>
    <rect x="90" y="260" width="50" height="8" rx="4" opacity="0.5"/>
  </g>
</svg>
